<?xml version="1.0" encoding="UTF-8"?>
<svg version="1.1" xmlns="http://www.w3.org/2000/svg" width="441" height="103">
<path d="M0 0 C145.53 0 291.06 0 441 0 C441 33.99 441 67.98 441 103 C295.47 103 149.94 103 0 103 C0 69.01 0 35.02 0 0 Z " fill="#FDFDFD" transform="translate(0,0)"/>
<path d="M0 0 C0.97195312 -0.03738281 1.94390625 -0.07476562 2.9453125 -0.11328125 C5.59190053 -0.14618082 8.0218103 -0.10559332 10.625 0.375 C13.77408334 3.5941928 13.97491554 6.96437502 14.5625 11.3125 C15.46243991 15.16803202 16.01270072 16.88477908 19.1328125 19.3828125 C25.31259592 22.52802197 31.90905006 24.68115422 38.625 26.375 C38.625 27.365 38.625 28.355 38.625 29.375 C32.355 29.375 26.085 29.375 19.625 29.375 C19.625 32.345 19.625 35.315 19.625 38.375 C17.34635417 38.83072917 15.06770833 39.28645833 12.7890625 39.7421875 C10.43826077 40.24158932 10.43826077 40.24158932 8.625 42.375 C7.97291907 48.67844897 9.03146378 53.11823925 12.625 58.375 C14.73075643 60.20800909 14.73075643 60.20800909 16.625 61.375 C16.625 62.035 16.625 62.695 16.625 63.375 C9.69474882 67.29514208 3.53720134 68.41660625 -4.375 67.375 C-8.1703966 66.30379318 -11.76829618 64.96535759 -15.375 63.375 C-14.99609375 61.42578125 -14.99609375 61.42578125 -14.375 59.375 C-13.735625 59.106875 -13.09625 58.83875 -12.4375 58.5625 C-9.95046681 57.43110979 -9.95046681 57.43110979 -9.125 53.75 C-8.8775 52.63625 -8.63 51.5225 -8.375 50.375 C-7.715 50.375 -7.055 50.375 -6.375 50.375 C-6.49875 49.09625 -6.6225 47.8175 -6.75 46.5 C-6.81960937 45.78070313 -6.88921875 45.06140625 -6.9609375 44.3203125 C-7.23874749 42.14831755 -7.23874749 42.14831755 -9.375 40.375 C-11.36321313 39.97735737 -13.36444339 39.63724651 -15.375 39.375 C-15.375 38.715 -15.375 38.055 -15.375 37.375 C-16.365 37.375 -17.355 37.375 -18.375 37.375 C-18.375 34.735 -18.375 32.095 -18.375 29.375 C-24.645 29.375 -30.915 29.375 -37.375 29.375 C-37.375 28.385 -37.375 27.395 -37.375 26.375 C-35.93945975 25.86940092 -34.5014798 25.3707251 -33.0625 24.875 C-32.26199219 24.5965625 -31.46148437 24.318125 -30.63671875 24.03125 C-28.375 23.375 -28.375 23.375 -25.375 23.375 C-25.375 22.715 -25.375 22.055 -25.375 21.375 C-22.075 20.055 -18.775 18.735 -15.375 17.375 C-15.045 14.735 -14.715 12.095 -14.375 9.375 C-13.715 9.375 -13.055 9.375 -12.375 9.375 C-12.230625 8.075625 -12.08625 6.77625 -11.9375 5.4375 C-11.14413704 -1.70276664 -6.24743711 0.09042343 0 0 Z " fill="#1E1E1E" transform="translate(84.375,11.625)"/>
<path d="M0 0 C4.48220854 2.40038937 8.19169638 5.12811403 10 10 C10.66360439 15.54032503 10.75573895 20.43254144 8.3125 25.5 C1.61620843 32.73923413 1.61620843 32.73923413 -3.390625 33.23828125 C-9.49055553 33.39661278 -13.27673622 33.27342913 -18 29 C-18.94875 28.195625 -19.8975 27.39125 -20.875 26.5625 C-24.02504497 22.57652076 -23.62281126 17.93279998 -23.41796875 13.06640625 C-22.87128066 9.05565721 -21.8267455 6.90113354 -19 4 C-12.58855133 -0.84129797 -7.75448415 -1.87848656 0 0 Z " fill="#201E20" transform="translate(360,31)"/>
<path d="M0 0 C7.92 0 15.84 0 24 0 C22.5 10.5 22.5 10.5 20 13 C19.44516514 19.32511739 20.3893898 23.71826278 24 29 C26.10575643 30.83300909 26.10575643 30.83300909 28 32 C28 32.66 28 33.32 28 34 C21.06974882 37.92014208 14.91220134 39.04160625 7 38 C3.2046034 36.92879318 -0.39329618 35.59035759 -4 34 C-3.62109375 32.05078125 -3.62109375 32.05078125 -3 30 C-2.360625 29.731875 -1.72125 29.46375 -1.0625 29.1875 C1.42453319 28.05610979 1.42453319 28.05610979 2.25 24.375 C2.4975 23.26125 2.745 22.1475 3 21 C3.66 21 4.32 21 5 21 C4.77057002 15.65763427 4.77057002 15.65763427 2.5 11.0625 C1 9 1 9 0 0 Z " fill="#EEEEEE" transform="translate(73,41)"/>
<path d="M0 0 C5.48317445 2.92357695 11.94053505 2.8096093 17.78515625 1.11328125 C21.20626802 -0.1258616 24.56811691 -1.39929283 27.82421875 -3.02734375 C32.7782988 -3.44586132 37.3910348 -3.50471125 41.82421875 -1.02734375 C43.63671875 0.59765625 43.63671875 0.59765625 44.82421875 1.97265625 C44.49421875 2.96265625 44.16421875 3.95265625 43.82421875 4.97265625 C41.48828125 5.8515625 41.48828125 5.8515625 38.44921875 6.53515625 C37.36640625 6.78265625 36.28359375 7.03015625 35.16796875 7.28515625 C31.1968397 8.10165007 27.21518619 8.8196339 23.21875 9.5 C20.65511403 9.94636663 20.65511403 9.94636663 17.63671875 11.09765625 C10.87772318 13.20045487 4.4876038 11.70020052 -2.17578125 9.97265625 C-2.17578125 9.31265625 -2.17578125 8.65265625 -2.17578125 7.97265625 C-2.93761719 7.93527344 -3.69945313 7.89789063 -4.484375 7.859375 C-11.16256126 7.43417213 -16.95896291 6.46880301 -23.17578125 3.97265625 C-22.60233188 1.10540939 -22.31432975 0.11120475 -20.17578125 -2.02734375 C-13.00864499 -4.19920322 -6.42999954 -3.76094312 0 0 Z " fill="#242424" transform="translate(74.17578125,78.02734375)"/>
<path d="M0 0 C2.701875 -0.061875 5.40375 -0.12375 8.1875 -0.1875 C9.02949951 -0.21481201 9.87149902 -0.24212402 10.73901367 -0.27026367 C15.34920289 -0.32122618 18.22808265 0.0662865 22 3 C24.38224928 5.38224928 24.32017149 6.0502037 24.375 9.3125 C24.3026182 12.77012282 24.04014782 13.93354844 22.1875 17 C18.84668179 20.05446237 16.16017658 20.11896333 11.8125 20.0625 C10.224375 20.041875 8.63625 20.02125 7 20 C7 24.29 7 28.58 7 33 C4.69 33 2.38 33 0 33 C0 22.11 0 11.22 0 0 Z " fill="#251F1E" transform="translate(375,31)"/>
<path d="M0 0 C1.98 0 3.96 0 6 0 C6.33 4.29 6.66 8.58 7 13 C13.93 13.495 13.93 13.495 21 14 C21 9.38 21 4.76 21 0 C22.98 0 24.96 0 27 0 C27 10.89 27 21.78 27 33 C25.02 33 23.04 33 21 33 C21 28.38 21 23.76 21 19 C16.05 19 11.1 19 6 19 C6 23.62 6 28.24 6 33 C4.02 33 2.04 33 0 33 C0 22.11 0 11.22 0 0 Z " fill="#1A1717" transform="translate(304,31)"/>
<path d="M0 0 C3.1875 1.6875 3.1875 1.6875 5 4 C5.8125 6.75 5.8125 6.75 6 9 C3.36 9 0.72 9 -2 9 C-2 8.01 -2 7.02 -2 6 C-4.31 6 -6.62 6 -9 6 C-9.33 7.32 -9.66 8.64 -10 10 C-6.15916114 12.47796055 -2.19035256 14.27664237 2.01171875 16.03515625 C4 17 4 17 6 19 C6.45993557 23.67601163 6.67058528 25.91318937 4.1875 29.9375 C0.41786777 33.49172468 -3.53485576 33.39830922 -8.484375 33.34765625 C-12.67885916 32.76798375 -14.24454157 31.17937512 -17 28 C-17.875 25.1875 -17.875 25.1875 -18 23 C-14.6875 22.75 -14.6875 22.75 -11 23 C-9.375 25 -9.375 25 -8 27 C-5.37374861 27.33425735 -5.37374861 27.33425735 -3 27 C-2.34 25.02 -1.68 23.04 -1 21 C-1.65226562 20.82984375 -2.30453125 20.6596875 -2.9765625 20.484375 C-13.133829 17.66790582 -13.133829 17.66790582 -17 14 C-18.06355972 11.26348959 -18.36419133 8.91353067 -18 6 C-13.54712481 -1.21672876 -7.87650551 -0.75614453 0 0 Z " fill="#232122" transform="translate(292,31)"/>
<path d="M0 0 C3.70390021 2.02666238 5.65363011 3.48044516 8 7 C8 7.99 8 8.98 8 10 C4.625 10.1875 4.625 10.1875 1 10 C0.34 9.01 -0.32 8.02 -1 7 C-4.08365871 6.7497843 -4.08365871 6.7497843 -7 7 C-7.33 8.32 -7.66 9.64 -8 11 C-4.41468404 13.3528636 -0.91367628 14.83366223 3.1328125 16.15625 C5.32583796 17.14724059 6.520197 18.10189402 8 20 C8.5375463 24.7611244 8.71502323 26.87979695 6.125 30.9375 C2.29753318 34.65239427 -1.06899145 34.39503551 -6.2265625 34.34765625 C-10.62576897 33.79620642 -12.1579048 32.36563905 -15 29 C-15.875 26.1875 -15.875 26.1875 -16 24 C-12.6875 23.75 -12.6875 23.75 -9 24 C-8 25.33333333 -7 26.66666667 -6 28 C-2.37436186 28.33380814 -2.37436186 28.33380814 1 28 C1.01280109 25.07351913 1.01280109 25.07351913 0 22 C-2.8961607 20.28902293 -2.8961607 20.28902293 -6.4375 19.3125 C-12.81682938 17.27475593 -12.81682938 17.27475593 -15 14 C-15.78993519 7.00343119 -15.78993519 7.00343119 -12.6875 3.0625 C-8.4885654 -0.15993818 -5.20289002 -0.44092288 0 0 Z " fill="#232022" transform="translate(156,30)"/>
<path d="M0 0 C6.27 0 12.54 0 19 0 C19 1.65 19 3.3 19 5 C14.71 5 10.42 5 6 5 C6 7.97 6 10.94 6 14 C9.96 14 13.92 14 18 14 C18 15.65 18 17.3 18 19 C14.04 19 10.08 19 6 19 C6 21.97 6 24.94 6 28 C10.29 28 14.58 28 19 28 C19 29.65 19 31.3 19 33 C12.73 33 6.46 33 0 33 C0 22.11 0 11.22 0 0 Z " fill="#1A181B" transform="translate(250,31)"/>
<path d="M0 0 C3.55163779 2.54791407 5.23401738 4.68385185 6 8.9375 C6.27490922 12.97713829 5.26364854 15.60452719 3 19 C-1.02951778 21.68634518 -4.26712146 21.78881309 -9 21 C-11.99540063 19.00306625 -13.49113042 17.54887179 -14.625 14.09765625 C-15.29576861 10.45733909 -15.07985434 8.23512666 -13.875 4.6875 C-10.01313136 -0.84784506 -6.48695989 -1.85341711 0 0 Z " fill="#F7F8F6" transform="translate(358,37)"/>
<path d="M0 0 C2.64 0 5.28 0 8 0 C9.98 4.29 11.96 8.58 14 13 C16.36543716 10.63456284 17.27541323 8.42932795 18.625 5.375 C19.07101563 4.37210938 19.51703125 3.36921875 19.9765625 2.3359375 C20.31429687 1.56507812 20.65203125 0.79421875 21 0 C23.64 0 26.28 0 29 0 C21 16 21 16 19.90429688 18.04101562 C18.5836238 20.90199855 18.56271071 23.62148821 18.375 26.75 C18.30023438 27.92046875 18.22546875 29.0909375 18.1484375 30.296875 C18.09945312 31.18890625 18.05046875 32.0809375 18 33 C15.69 33 13.38 33 11 33 C11.04382813 32.28199219 11.08765625 31.56398438 11.1328125 30.82421875 C11.10550095 19.85863295 6.30879756 11.92964517 0.90209961 2.65136719 C0 1 0 1 0 0 Z " fill="#241F24" transform="translate(195,31)"/>
<path d="M0 0 C0.66 0.33 1.32 0.66 2 1 C7.04375319 1.30351789 12.09260374 1.308639 17 0 C17.4125 1.093125 17.825 2.18625 18.25 3.3125 C19.61722038 6.55719525 21.02405799 8.05024489 24 10 C24 10.66 24 11.32 24 12 C17.06974882 15.92014208 10.91220134 17.04160625 3 16 C-0.7953966 14.92879318 -4.39329618 13.59035759 -8 12 C-7.6171875 10.0546875 -7.6171875 10.0546875 -7 8 C-6.38125 7.71125 -5.7625 7.4225 -5.125 7.125 C-2.03948202 5.49149048 -1.35580128 3.11834294 0 0 Z " fill="#1C1C1C" transform="translate(77,63)"/>
<path d="M0 0 C7.92 0 15.84 0 24 0 C24 1.65 24 3.3 24 5 C21.03 5 18.06 5 15 5 C15 14.24 15 23.48 15 33 C12.69 33 10.38 33 8 33 C8 23.76 8 14.52 8 5 C5.36 5 2.72 5 0 5 C0 3.35 0 1.7 0 0 Z " fill="#251F20" transform="translate(169,31)"/>
<path d="M0 0 C3.43705705 -0.14505175 6.87333033 -0.23398014 10.3125 -0.3125 C11.28896484 -0.35439453 12.26542969 -0.39628906 13.27148438 -0.43945312 C20.41460807 -0.56218721 20.41460807 -0.56218721 23.16796875 2.08203125 C24 5 24 5 24 12 C15.42 12 6.84 12 -2 12 C-2 3 -2 3 0 0 Z " fill="#1A1A1A" transform="translate(74,12)"/>
<path d="M0 0 C1.98 0 3.96 0 6 0 C6 9.24 6 18.48 6 28 C9.63 28 13.26 28 17 28 C17 29.65 17 31.3 17 33 C11.39 33 5.78 33 0 33 C0 22.11 0 11.22 0 0 Z " fill="#1B1717" transform="translate(228,31)"/>
<path d="M0 0 C0.66 0 1.32 0 2 0 C2 0.99 2 1.98 2 3 C10.58 3 19.16 3 28 3 C28.33 2.01 28.66 1.02 29 0 C29.66 2.97 30.32 5.94 31 9 C20.44 9 9.88 9 -1 9 C-0.67 6.03 -0.34 3.06 0 0 Z " fill="#5A5A5A" transform="translate(70,21)"/>
<path d="M0 0 C2 1 2 1 3.3125 3.9375 C4.72407 7.08979991 4.72407 7.08979991 7.3125 8.4375 C11.97090656 9.41251533 15.96210744 8.45157762 20 6 C20.66 5.34 21.32 4.68 22 4 C21.125 7.875 21.125 7.875 20 9 C19.92820036 10.51928038 19.91607993 12.04167482 19.9375 13.5625 C19.94652344 14.38878906 19.95554687 15.21507812 19.96484375 16.06640625 C19.97644531 16.70449219 19.98804687 17.34257813 20 18 C16.83650409 19.86131271 14.52763845 20.24746869 10.875 20.1875 C10.00617188 20.18105469 9.13734375 20.17460938 8.2421875 20.16796875 C6 20 6 20 4 19 C3.34 19.99 2.68 20.98 2 22 C2.33 20.35 2.66 18.7 3 17 C3.66 17 4.32 17 5 17 C4.57129785 11.85557416 4.33077784 9.02468989 1 5 C0.3125 2.25 0.3125 2.25 0 0 Z " fill="#9C9C9C" transform="translate(73,45)"/>
<path d="M0 0 C0.99 0.33 1.98 0.66 3 1 C3 1.66 3 2.32 3 3 C5.64 3 8.28 3 11 3 C11 3.33 11 3.66 11 4 C10.10861328 4.14695312 10.10861328 4.14695312 9.19921875 4.296875 C4.38079363 5.16613987 -0.00829315 6.31103626 -4.5625 8.125 C-11.98747301 10.91720816 -17.85550609 10.89016729 -25.17578125 7.8515625 C-27 7 -27 7 -28.87109375 5.90625 C-31.60819668 4.74109793 -33.78767043 4.80446834 -36.75 4.875 C-37.73484375 4.89304687 -38.7196875 4.91109375 -39.734375 4.9296875 C-40.48203125 4.95289062 -41.2296875 4.97609375 -42 5 C-41.67 4.34 -41.34 3.68 -41 3 C-38.27734375 2.3671875 -38.27734375 2.3671875 -34.9375 1.875 C-33.83277344 1.70742187 -32.72804688 1.53984375 -31.58984375 1.3671875 C-30.30787109 1.18542969 -30.30787109 1.18542969 -29 1 C-29.33 1.99 -29.66 2.98 -30 4 C-29.29875 4.12375 -28.5975 4.2475 -27.875 4.375 C-25 5 -25 5 -22.4375 6.0625 C-16.11059446 7.78801969 -9.52188534 8.06184646 -3.4375 5.5 C-2.633125 5.005 -1.82875 4.51 -1 4 C-0.01 4 0.98 4 2 4 C1.34 2.68 0.68 1.36 0 0 Z " fill="#A3A3A3" transform="translate(99,71)"/>
<path d="M0 0 C6.4 -0.36923077 6.4 -0.36923077 9.4375 1.5 C9.953125 1.995 10.46875 2.49 11 3 C10.25 7.75 10.25 7.75 8 10 C5.31160615 10.26991906 2.70858064 10.08737357 0 10 C0 6.7 0 3.4 0 0 Z " fill="#F4F7F2" transform="translate(382,36)"/>
<path d="M0 0 C3.3 0 6.6 0 10 0 C10 2.64 10 5.28 10 8 C6.7 8 3.4 8 0 8 C0 5.36 0 2.72 0 0 Z " fill="#F8F8F8" transform="translate(80,56)"/>
<path d="M0 0 C0.99 0.33 1.98 0.66 3 1 C3 1.66 3 2.32 3 3 C5.64 3 8.28 3 11 3 C11 3.33 11 3.66 11 4 C10.3709375 4.10957031 9.741875 4.21914062 9.09375 4.33203125 C3.43376318 5.38049266 -1.6694886 6.82831017 -7 9 C-6.67 8.01 -6.34 7.02 -6 6 C-3.10441559 4.5522078 -1.25811062 4 2 4 C1.34 2.68 0.68 1.36 0 0 Z " fill="#949494" transform="translate(99,71)"/>
<path d="M0 0 C1.98 0 3.96 0 6 0 C5.67 1.65 5.34 3.3 5 5 C3.35 4.67 1.7 4.34 0 4 C0 2.68 0 1.36 0 0 Z " fill="#484848" transform="translate(82,47)"/>
</svg>
